<?xml version="1.0" standalone="no"?>
<!DOCTYPE svg PUBLIC "-//W3C//DTD SVG 20010904//EN"
 "http://www.w3.org/TR/2001/REC-SVG-20010904/DTD/svg10.dtd">
<svg version="1.0" xmlns="http://www.w3.org/2000/svg"
 width="128.000000pt" height="128.000000pt" viewBox="0 0 128.000000 128.000000"
 preserveAspectRatio="xMidYMid meet">

<g transform="translate(0.000000,128.000000) scale(0.100000,-0.100000)"
fill="#000000" stroke="none">
<path d="M190 1065 c-10 -12 -10 -15 3 -15 8 0 17 6 20 13 2 6 8 8 13 4 5 -4
2 -12 -5 -16 -8 -5 -10 -14 -6 -21 5 -9 14 -4 31 15 13 16 24 29 24 30 0 0
-15 2 -34 3 -20 2 -38 -4 -46 -13z"/>
<path d="M153 998 c-1 -34 2 -68 8 -74 6 -7 11 -43 13 -81 4 -107 32 -184 50
-138 3 9 0 15 -8 15 -10 0 -13 13 -10 49 2 36 -1 49 -9 45 -9 -3 -13 15 -13
61 -1 36 3 65 7 65 5 0 9 -17 10 -37 l1 -38 10 29 c8 21 8 34 -1 48 -6 10 -11
26 -11 37 0 11 -6 22 -12 25 -10 5 -10 7 0 12 6 3 12 10 12 15 0 6 -5 7 -10 4
-6 -3 -13 1 -16 9 -12 31 -20 15 -21 -46z"/>
<path d="M210 989 c7 -11 14 -18 17 -15 8 8 -5 36 -17 36 -7 0 -7 -6 0 -21z"/>
<path d="M1021 668 c5 -18 9 -66 9 -106 0 -54 3 -72 13 -70 7 2 14 -1 15 -7 1
-5 -4 -10 -10 -10 -7 0 -13 -9 -14 -20 -1 -11 -4 -28 -8 -37 -15 -44 -15 -51
6 -69 13 -10 28 -17 33 -15 6 2 11 -4 11 -14 0 -11 -5 -16 -15 -12 -10 4 -13
1 -8 -11 5 -13 -2 -17 -36 -20 -35 -3 -32 -4 17 -5 l59 -2 -8 68 c-4 37 -6 89
-6 116 1 29 -3 52 -10 56 -6 4 -11 28 -11 52 1 24 -5 57 -13 72 -8 16 -15 37
-15 47 0 11 -4 19 -9 19 -6 0 -6 -12 0 -32z m32 -254 c3 -3 3 -13 0 -21 -5
-12 -7 -12 -14 -1 -15 23 -4 40 14 22z m13 -61 c-10 -10 -19 5 -10 18 6 11 8
11 12 0 2 -7 1 -15 -2 -18z"/>
<path d="M200 666 c0 -2 7 -6 15 -10 8 -3 15 -1 15 4 0 6 -7 10 -15 10 -8 0
-15 -2 -15 -4z"/>
<path d="M1010 310 c0 -23 10 -26 28 -8 18 18 15 28 -8 28 -13 0 -20 -7 -20
-20z"/>
</g>
</svg>
