<svg id="svg" version="1.1" xmlns="http://www.w3.org/2000/svg" xmlns:xlink="http://www.w3.org/1999/xlink" width="400" height="400" viewBox="0, 0, 400,400"><g id="svgg"><path id="path0" d="M108.800 56.230 C 106.005 56.457,97.736 57.596,94.292 58.229 C 92.582 58.543,88.982 58.800,86.292 58.800 C 83.601 58.800,80.050 59.054,78.400 59.364 C 76.461 59.728,70.659 60.028,62.000 60.212 C 45.938 60.554,46.241 60.476,44.315 64.723 C 42.746 68.184,42.847 73.870,44.564 78.738 C 45.160 80.429,45.602 82.552,45.604 83.738 C 45.606 84.872,45.872 88.165,46.195 91.056 C 46.518 93.946,46.971 100.066,47.201 104.656 C 47.619 112.970,48.219 121.940,48.789 128.400 C 48.955 130.270,49.668 134.410,50.375 137.600 C 51.236 141.488,51.780 145.312,52.026 149.200 C 52.488 156.520,53.208 160.137,55.186 165.076 C 56.050 167.234,56.947 170.170,57.179 171.600 C 57.843 175.691,58.667 178.364,59.751 179.942 C 60.615 181.201,61.448 183.901,62.873 190.064 C 63.059 190.869,63.760 192.115,64.432 192.834 C 66.035 194.550,66.605 195.708,67.579 199.222 C 68.071 200.998,69.073 203.170,70.139 204.770 C 71.101 206.217,72.280 208.456,72.757 209.748 C 73.234 211.039,74.233 212.839,74.976 213.748 C 75.719 214.656,76.984 216.750,77.786 218.400 C 78.738 220.358,79.675 221.678,80.482 222.200 C 81.263 222.705,82.300 224.131,83.292 226.065 C 84.402 228.226,85.185 229.263,85.951 229.580 C 86.548 229.827,87.569 230.673,88.218 231.460 C 88.868 232.247,90.167 233.679,91.104 234.642 C 92.041 235.605,93.273 237.378,93.843 238.580 C 94.523 240.017,95.337 241.038,96.217 241.557 C 96.954 241.992,97.993 243.034,98.525 243.874 C 99.058 244.713,100.418 246.176,101.547 247.124 C 102.676 248.072,103.600 249.109,103.600 249.429 C 103.600 249.748,104.545 250.627,105.700 251.381 C 106.855 252.136,108.395 253.483,109.123 254.376 C 109.850 255.269,110.755 256.000,111.134 256.000 C 112.236 256.000,113.639 257.195,114.248 258.652 C 114.863 260.124,116.501 260.557,116.957 259.368 C 117.869 256.992,118.012 246.976,118.027 184.686 C 118.044 113.535,118.027 114.151,120.039 109.533 C 120.677 108.066,121.202 106.536,121.205 106.133 C 121.227 102.766,125.368 98.749,130.000 97.601 C 131.870 97.138,134.049 96.482,134.843 96.144 C 136.580 95.405,140.891 95.579,143.600 96.498 C 144.590 96.834,146.390 97.401,147.600 97.758 C 149.983 98.460,153.022 100.984,154.302 103.324 C 155.199 104.963,155.498 111.767,155.926 140.200 C 156.101 151.860,156.279 161.423,156.322 161.452 C 156.365 161.481,157.390 162.251,158.599 163.164 C 161.552 165.394,161.553 165.394,164.220 164.174 L 166.555 163.105 193.778 163.145 C 217.653 163.180,221.480 163.101,224.900 162.508 C 228.940 161.808,228.854 161.864,229.486 159.532 C 230.232 156.783,230.062 70.883,229.308 69.414 L 228.560 67.956 227.463 70.628 C 225.561 75.258,223.298 75.985,218.976 73.352 C 215.608 71.300,214.592 70.925,211.085 70.437 C 207.962 70.003,205.307 68.956,203.774 67.555 C 203.320 67.140,201.880 66.612,200.574 66.381 C 195.917 65.558,191.363 64.303,189.000 63.190 C 185.461 61.523,181.970 60.855,174.285 60.372 C 170.498 60.135,166.590 59.689,165.600 59.381 C 157.331 56.814,153.504 56.475,130.400 56.264 C 119.510 56.165,109.790 56.149,108.800 56.230 M269.052 105.406 C 268.693 105.764,268.359 106.089,268.308 106.129 C 268.258 106.168,268.123 140.670,268.008 182.800 L 267.800 259.400 266.877 261.400 C 265.361 264.682,260.663 268.984,256.495 270.907 C 252.320 272.833,239.200 271.858,239.200 269.621 C 239.200 269.456,238.493 269.003,237.629 268.613 C 236.376 268.048,235.879 267.490,235.179 265.862 C 234.695 264.738,233.606 262.825,232.757 261.609 C 231.271 259.481,231.199 259.225,230.793 254.600 C 230.560 251.960,230.224 248.270,230.046 246.400 C 229.305 238.647,229.818 205.216,230.716 202.732 C 231.487 200.595,231.501 200.312,230.944 197.872 C 229.918 193.373,233.677 193.799,195.058 193.805 C 156.388 193.812,159.379 193.521,157.378 197.473 L 156.200 199.800 155.927 246.000 C 155.605 300.488,155.381 305.014,152.927 306.708 C 149.411 309.134,149.708 310.077,153.936 309.916 L 156.974 309.800 157.987 307.773 C 158.544 306.659,159.733 304.859,160.629 303.773 C 161.526 302.688,162.673 300.763,163.178 299.495 C 164.633 295.845,165.880 295.043,169.587 295.374 C 172.613 295.644,176.800 297.149,176.800 297.966 C 176.800 298.444,181.338 299.832,184.088 300.196 C 186.222 300.478,190.078 301.947,191.194 302.902 C 192.510 304.029,193.358 304.323,196.609 304.775 C 207.373 306.274,211.015 306.882,212.514 307.430 C 216.836 309.009,219.862 309.656,225.600 310.230 C 231.636 310.834,244.959 311.378,250.600 311.250 C 254.308 311.167,258.405 311.869,261.063 313.045 C 264.088 314.382,268.249 314.371,271.696 313.015 C 275.321 311.589,295.550 309.739,302.200 310.225 C 308.483 310.684,330.570 308.831,332.297 307.700 C 332.988 307.247,334.441 306.996,336.951 306.895 C 344.314 306.600,345.915 303.222,343.816 292.409 C 343.455 290.553,343.070 284.417,342.811 276.400 C 342.580 269.250,342.223 262.230,342.017 260.800 C 341.811 259.370,341.454 256.490,341.223 254.400 C 340.993 252.310,340.465 249.520,340.052 248.200 C 339.568 246.656,339.203 243.875,339.029 240.400 C 338.880 237.430,338.585 234.010,338.375 232.800 C 338.164 231.590,337.831 227.720,337.634 224.200 C 337.275 217.781,336.531 213.926,334.777 209.400 C 334.350 208.300,333.474 204.661,332.829 201.313 C 331.962 196.812,331.340 194.650,330.441 193.013 C 329.718 191.695,328.676 188.552,327.868 185.251 C 326.870 181.177,326.180 179.224,325.270 177.902 C 324.589 176.912,323.591 174.933,323.054 173.505 C 321.825 170.240,320.959 168.559,320.025 167.625 C 319.288 166.888,317.600 162.846,317.600 161.818 C 317.600 160.867,315.970 157.415,315.360 157.074 C 314.554 156.623,313.027 154.117,312.407 152.228 C 312.104 151.307,311.007 149.780,309.756 148.539 C 308.581 147.374,307.500 145.921,307.353 145.310 C 306.697 142.580,305.601 141.156,303.409 140.187 C 302.231 139.666,300.937 138.773,300.534 138.201 C 300.130 137.630,299.112 136.316,298.272 135.281 C 297.431 134.247,296.476 132.749,296.150 131.953 C 295.811 131.128,294.923 130.095,294.088 129.553 C 293.282 129.029,292.223 127.888,291.736 127.019 C 291.250 126.149,290.124 124.889,289.235 124.219 C 288.345 123.548,287.084 122.155,286.432 121.122 C 285.779 120.089,284.700 118.962,284.033 118.617 C 282.255 117.697,278.902 113.445,275.936 108.349 C 274.763 106.332,274.437 106.053,272.813 105.677 C 271.816 105.445,270.708 105.143,270.352 105.005 C 269.989 104.865,269.416 105.041,269.052 105.406 " stroke="none" fill="#8bbb21" fill-rule="evenodd"></path><path id="path1" d="M115.600 53.458 C 106.923 53.745,94.926 54.515,91.400 55.012 C 89.200 55.322,85.690 55.760,83.600 55.986 C 81.510 56.212,78.630 56.781,77.200 57.251 C 74.821 58.033,73.409 58.127,60.600 58.364 C 45.336 58.646,44.431 58.794,42.362 61.345 C 40.996 63.029,40.433 70.562,41.207 76.800 C 41.412 78.450,41.772 81.573,42.008 83.739 C 42.245 85.905,42.882 89.086,43.426 90.806 C 44.619 94.583,45.066 99.247,45.398 111.400 C 46.043 135.014,46.330 137.486,49.010 142.468 C 49.934 144.186,50.045 144.960,50.389 152.068 C 50.795 160.444,51.575 165.543,52.692 167.108 C 54.481 169.615,54.778 170.311,55.191 172.967 C 55.994 178.140,56.804 180.816,58.587 184.198 C 59.559 186.040,60.466 188.234,60.602 189.073 C 61.014 191.598,61.913 193.705,63.817 196.603 C 64.810 198.116,65.724 199.815,65.847 200.377 C 66.638 204.002,67.304 205.538,68.786 207.148 C 70.245 208.733,70.620 209.564,71.351 212.833 C 71.478 213.402,72.271 214.662,73.114 215.633 C 75.039 217.852,76.400 220.080,76.400 221.011 C 76.400 221.405,77.232 222.491,78.248 223.424 C 79.605 224.670,80.407 225.894,81.265 228.028 C 82.276 230.544,83.982 232.798,84.877 232.800 C 85.029 232.800,85.952 233.838,86.928 235.106 C 87.904 236.375,89.150 237.652,89.698 237.945 C 90.245 238.238,91.072 239.315,91.536 240.339 C 92.000 241.362,93.194 242.988,94.190 243.950 C 95.185 244.913,96.000 245.890,96.000 246.122 C 96.000 247.289,105.630 256.244,109.030 258.238 C 109.927 258.764,111.233 259.991,111.933 260.966 C 113.674 263.391,115.415 264.376,118.467 264.660 L 121.000 264.897 121.773 261.948 C 122.450 259.363,122.554 257.423,122.614 246.200 C 122.651 239.160,122.717 227.730,122.761 220.800 C 122.805 213.870,122.833 187.542,122.823 162.294 C 122.801 105.425,122.698 106.696,127.715 102.332 C 130.272 100.108,130.655 99.984,136.862 99.359 C 141.230 98.918,148.400 100.327,148.400 101.626 C 148.400 101.849,149.123 102.761,150.006 103.654 C 153.023 106.701,153.184 108.356,153.546 140.000 L 153.800 162.200 154.904 164.294 C 156.606 167.524,159.668 168.745,164.200 168.000 C 165.618 167.767,175.606 167.639,188.600 167.687 C 225.767 167.825,227.586 167.713,230.303 165.122 C 233.569 162.007,233.327 165.410,233.607 118.600 C 233.853 77.285,233.861 76.982,234.724 74.400 C 235.203 72.970,235.598 70.810,235.603 69.600 C 235.608 68.390,235.873 66.320,236.192 65.000 C 236.511 63.680,236.778 61.655,236.786 60.500 L 236.800 58.400 234.669 58.400 C 232.587 58.400,232.485 58.455,230.233 60.800 C 228.965 62.120,227.788 63.200,227.617 63.200 C 227.200 63.200,225.393 65.962,225.001 67.198 C 224.229 69.630,223.223 70.402,221.644 69.776 C 220.850 69.461,218.310 68.859,216.000 68.438 C 213.323 67.950,211.075 67.274,209.800 66.573 C 205.916 64.437,204.811 63.995,201.323 63.190 C 199.385 62.743,196.900 61.943,195.800 61.413 C 192.958 60.043,187.779 58.907,182.166 58.423 C 177.614 58.030,169.835 56.533,167.329 55.567 C 163.952 54.266,160.272 53.977,142.400 53.609 C 124.956 53.250,122.342 53.235,115.600 53.458 M154.600 57.012 C 158.832 57.558,161.756 58.188,165.600 59.381 C 166.590 59.689,170.498 60.135,174.285 60.372 C 181.970 60.855,185.461 61.523,189.000 63.190 C 191.363 64.303,195.917 65.558,200.574 66.381 C 201.880 66.612,203.320 67.140,203.774 67.555 C 205.307 68.956,207.962 70.003,211.085 70.437 C 214.592 70.925,215.608 71.300,218.976 73.352 C 223.298 75.985,225.561 75.258,227.463 70.628 L 228.560 67.956 229.308 69.414 C 230.062 70.883,230.232 156.783,229.486 159.532 C 228.854 161.864,228.940 161.808,224.900 162.508 C 221.480 163.101,217.653 163.180,193.778 163.145 L 166.555 163.105 164.220 164.174 C 161.553 165.394,161.552 165.394,158.599 163.164 C 157.390 162.251,156.365 161.481,156.322 161.452 C 156.279 161.423,156.101 151.860,155.926 140.200 C 155.498 111.767,155.199 104.963,154.302 103.324 C 153.022 100.984,149.983 98.460,147.600 97.758 C 146.390 97.401,144.590 96.834,143.600 96.498 C 140.891 95.579,136.580 95.405,134.843 96.144 C 134.049 96.482,131.870 97.138,130.000 97.601 C 125.368 98.749,121.227 102.766,121.205 106.133 C 121.202 106.536,120.677 108.066,120.039 109.533 C 118.027 114.151,118.044 113.535,118.027 184.686 C 118.012 246.976,117.869 256.992,116.957 259.368 C 116.501 260.557,114.863 260.124,114.248 258.652 C 113.639 257.195,112.236 256.000,111.134 256.000 C 110.755 256.000,109.850 255.269,109.123 254.376 C 108.395 253.483,106.855 252.136,105.700 251.381 C 104.545 250.627,103.600 249.748,103.600 249.429 C 103.600 249.109,102.676 248.072,101.547 247.124 C 100.418 246.176,99.058 244.713,98.525 243.874 C 97.993 243.034,96.954 241.992,96.217 241.557 C 95.337 241.038,94.523 240.017,93.843 238.580 C 93.273 237.378,92.041 235.605,91.104 234.642 C 90.167 233.679,88.868 232.247,88.218 231.460 C 87.569 230.673,86.548 229.827,85.951 229.580 C 85.185 229.263,84.402 228.226,83.292 226.065 C 82.300 224.131,81.263 222.705,80.482 222.200 C 79.675 221.678,78.738 220.358,77.786 218.400 C 76.984 216.750,75.719 214.656,74.976 213.748 C 74.233 212.839,73.234 211.039,72.757 209.748 C 72.280 208.456,71.101 206.217,70.139 204.770 C 69.073 203.170,68.071 200.998,67.579 199.222 C 66.605 195.708,66.035 194.550,64.432 192.834 C 63.760 192.115,63.059 190.869,62.873 190.064 C 61.448 183.901,60.615 181.201,59.751 179.942 C 58.667 178.364,57.843 175.691,57.179 171.600 C 56.947 170.170,56.050 167.234,55.186 165.076 C 53.208 160.137,52.488 156.520,52.026 149.200 C 51.780 145.312,51.236 141.488,50.375 137.600 C 49.668 134.410,48.955 130.270,48.789 128.400 C 48.219 121.940,47.619 112.970,47.201 104.656 C 46.971 100.066,46.518 93.946,46.195 91.056 C 45.872 88.165,45.606 84.872,45.604 83.738 C 45.602 82.552,45.160 80.429,44.564 78.738 C 42.847 73.870,42.746 68.184,44.315 64.723 C 46.241 60.476,45.938 60.554,62.000 60.212 C 70.659 60.028,76.461 59.728,78.400 59.364 C 80.050 59.054,83.601 58.800,86.292 58.800 C 88.982 58.800,92.582 58.543,94.292 58.229 C 97.736 57.596,106.005 56.457,108.800 56.230 C 113.538 55.845,150.435 56.475,154.600 57.012 M237.352 56.981 C 237.073 57.707,237.478 58.400,238.181 58.400 C 238.685 58.400,239.200 57.575,239.200 56.767 C 239.200 56.166,237.594 56.351,237.352 56.981 M267.823 103.334 C 266.032 105.682,266.016 106.362,266.008 182.441 C 265.999 264.396,266.146 259.254,263.740 261.886 C 262.779 262.939,261.589 264.280,261.096 264.866 C 260.603 265.453,259.660 266.164,259.000 266.447 C 258.340 266.729,256.900 267.495,255.800 268.148 C 251.519 270.688,248.003 270.660,243.688 268.053 C 242.183 267.144,240.634 266.400,240.245 266.400 C 239.294 266.400,237.200 264.254,237.200 263.280 C 237.200 262.850,236.950 261.891,236.644 261.149 C 236.338 260.407,235.966 258.270,235.818 256.400 C 235.669 254.530,235.093 251.416,234.538 249.479 L 233.528 245.958 233.483 225.479 C 233.442 206.377,233.490 204.844,234.198 202.683 C 235.479 198.773,233.906 194.453,230.600 192.800 L 228.600 191.800 198.000 191.688 C 157.430 191.538,155.826 191.707,154.363 196.274 C 153.995 197.423,153.802 210.365,153.583 248.600 C 153.253 306.267,153.449 302.947,150.218 305.708 C 148.814 306.908,148.342 307.621,148.148 308.836 C 147.969 309.955,147.430 310.861,146.278 311.979 C 143.119 315.045,145.980 315.699,152.304 313.357 C 154.447 312.564,156.650 311.750,157.200 311.549 C 157.750 311.348,158.650 310.516,159.200 309.700 C 159.750 308.884,161.054 307.397,162.097 306.395 C 163.581 304.969,164.248 303.880,165.165 301.386 L 166.336 298.200 167.868 298.269 C 169.575 298.345,170.563 298.716,173.200 300.273 C 174.190 300.857,176.688 301.764,178.750 302.288 C 180.813 302.812,183.703 303.846,185.172 304.586 C 186.888 305.450,189.195 306.174,191.622 306.610 C 195.482 307.303,201.177 308.701,204.400 309.745 C 206.709 310.494,211.580 311.502,214.400 311.815 C 218.339 312.252,226.112 313.632,226.843 314.023 C 228.701 315.017,233.968 315.574,241.730 315.596 C 246.168 315.609,253.547 315.912,258.128 316.269 C 264.647 316.778,267.253 316.827,270.128 316.495 C 272.147 316.262,276.410 315.766,279.600 315.394 C 282.790 315.021,285.808 314.459,286.306 314.145 C 288.056 313.041,291.132 312.770,306.200 312.390 C 325.683 311.898,330.646 311.545,334.148 310.399 C 336.194 309.729,337.406 309.560,338.898 309.737 C 346.042 310.583,350.476 301.000,346.624 293.036 C 345.157 290.001,344.851 287.053,344.814 275.600 C 344.768 260.954,344.181 251.661,342.850 244.491 C 342.207 241.031,341.501 237.210,341.280 236.000 C 341.059 234.790,340.593 232.810,340.244 231.600 C 339.834 230.178,339.605 227.773,339.597 224.800 C 339.572 215.692,338.566 209.690,336.069 203.743 C 335.398 202.145,334.586 199.109,334.227 196.851 C 333.492 192.225,333.126 191.103,331.773 189.329 C 330.434 187.574,330.083 186.509,329.372 182.058 C 328.825 178.633,328.538 177.863,326.817 175.200 C 325.751 173.550,324.468 171.030,323.967 169.600 C 323.466 168.170,322.380 166.135,321.552 165.078 C 320.517 163.755,319.673 161.947,318.841 159.269 C 317.938 156.363,317.317 155.081,316.380 154.191 C 315.691 153.536,314.521 151.727,313.779 150.171 C 312.891 148.307,312.088 147.186,311.423 146.883 C 310.425 146.429,309.326 144.467,308.400 141.490 C 308.114 140.568,307.370 139.554,306.492 138.890 C 303.828 136.873,299.319 131.790,298.504 129.886 C 297.931 128.548,295.247 125.324,291.798 121.832 C 290.476 120.494,288.676 118.510,287.798 117.422 C 286.919 116.334,284.192 113.426,281.739 110.959 C 279.285 108.492,277.163 106.113,277.023 105.672 C 276.693 104.631,275.053 103.548,272.800 102.882 C 269.116 101.793,268.990 101.805,267.823 103.334 M272.813 105.677 C 274.437 106.053,274.763 106.332,275.936 108.349 C 278.902 113.445,282.255 117.697,284.033 118.617 C 284.700 118.962,285.779 120.089,286.432 121.122 C 287.084 122.155,288.345 123.548,289.235 124.219 C 290.124 124.889,291.250 126.149,291.736 127.019 C 292.223 127.888,293.282 129.029,294.088 129.553 C 294.923 130.095,295.811 131.128,296.150 131.953 C 296.476 132.749,297.431 134.247,298.272 135.281 C 299.112 136.316,300.130 137.630,300.534 138.201 C 300.937 138.773,302.231 139.666,303.409 140.187 C 305.601 141.156,306.697 142.580,307.353 145.310 C 307.500 145.921,308.581 147.374,309.756 148.539 C 311.007 149.780,312.104 151.307,312.407 152.228 C 313.027 154.117,314.554 156.623,315.360 157.074 C 315.970 157.415,317.600 160.867,317.600 161.818 C 317.600 162.846,319.288 166.888,320.025 167.625 C 320.959 168.559,321.825 170.240,323.054 173.505 C 323.591 174.933,324.589 176.912,325.270 177.902 C 326.180 179.224,326.870 181.177,327.868 185.251 C 328.676 188.552,329.718 191.695,330.441 193.013 C 331.340 194.650,331.962 196.812,332.829 201.313 C 333.474 204.661,334.350 208.300,334.777 209.400 C 336.531 213.926,337.275 217.781,337.634 224.200 C 337.831 227.720,338.164 231.590,338.375 232.800 C 338.585 234.010,338.880 237.430,339.029 240.400 C 339.203 243.875,339.568 246.656,340.052 248.200 C 340.465 249.520,340.993 252.310,341.223 254.400 C 341.454 256.490,341.811 259.370,342.017 260.800 C 342.223 262.230,342.580 269.250,342.811 276.400 C 343.070 284.417,343.455 290.553,343.816 292.409 C 345.915 303.222,344.314 306.600,336.951 306.895 C 334.441 306.996,332.988 307.247,332.297 307.700 C 330.570 308.831,308.483 310.684,302.200 310.225 C 295.550 309.739,275.321 311.589,271.696 313.015 C 268.249 314.371,264.088 314.382,261.063 313.045 C 258.405 311.869,254.308 311.167,250.600 311.250 C 244.959 311.378,231.636 310.834,225.600 310.230 C 219.862 309.656,216.836 309.009,212.514 307.430 C 211.015 306.882,207.373 306.274,196.609 304.775 C 193.358 304.323,192.510 304.029,191.194 302.902 C 190.078 301.947,186.222 300.478,184.088 300.196 C 181.338 299.832,176.800 298.444,176.800 297.966 C 176.800 297.149,172.613 295.644,169.587 295.374 C 165.880 295.043,164.633 295.845,163.178 299.495 C 162.673 300.763,161.526 302.688,160.629 303.773 C 159.733 304.859,158.544 306.659,157.987 307.773 L 156.974 309.800 153.936 309.916 C 149.708 310.077,149.411 309.134,152.927 306.708 C 155.381 305.014,155.605 300.488,155.927 246.000 L 156.200 199.800 157.378 197.473 C 159.379 193.521,156.388 193.812,195.058 193.805 C 233.677 193.799,229.918 193.373,230.944 197.872 C 231.501 200.312,231.487 200.595,230.716 202.732 C 229.818 205.216,229.305 238.647,230.046 246.400 C 230.224 248.270,230.560 251.960,230.793 254.600 C 231.199 259.225,231.271 259.481,232.757 261.609 C 233.606 262.825,234.695 264.738,235.179 265.862 C 235.879 267.490,236.376 268.048,237.629 268.613 C 238.493 269.003,239.200 269.456,239.200 269.621 C 239.200 271.858,252.320 272.833,256.495 270.907 C 260.663 268.984,265.361 264.682,266.877 261.400 L 267.800 259.400 268.008 182.800 C 268.123 140.670,268.258 106.168,268.308 106.129 C 268.359 106.089,268.693 105.764,269.052 105.406 C 269.416 105.041,269.989 104.865,270.352 105.005 C 270.708 105.143,271.816 105.445,272.813 105.677 " stroke="none" fill="#cce098" fill-rule="evenodd"></path><path id="path2" d="M0.000 200.000 L 0.000 400.000 200.000 400.000 L 400.000 400.000 400.000 200.000 L 400.000 0.000 200.000 0.000 L 0.000 0.000 0.000 200.000 M155.000 49.561 C 161.081 49.887,162.012 50.033,163.800 50.942 C 165.053 51.579,167.369 52.202,170.000 52.609 C 172.310 52.967,175.010 53.508,176.000 53.812 C 181.691 55.558,184.087 56.017,190.600 56.609 C 199.345 57.404,205.432 59.057,207.000 61.062 C 207.220 61.343,208.390 61.830,209.600 62.143 C 211.661 62.677,214.568 63.674,217.439 64.830 C 219.036 65.474,222.807 63.515,223.584 61.637 C 224.198 60.156,225.442 58.993,227.205 58.252 C 227.972 57.929,229.140 57.094,229.800 56.396 C 232.755 53.270,238.429 51.877,242.067 53.384 C 242.433 53.536,243.182 54.338,243.730 55.166 L 244.726 56.671 243.663 58.447 C 243.078 59.423,241.862 61.297,240.961 62.611 C 240.059 63.925,239.071 65.450,238.764 66.000 C 238.299 66.834,238.172 74.921,238.003 114.600 L 237.800 162.200 236.735 164.471 C 234.323 169.617,223.769 172.102,209.600 170.860 C 206.176 170.560,195.445 170.389,180.280 170.393 C 154.517 170.401,155.307 170.462,153.289 168.301 C 151.679 166.576,151.510 163.942,151.413 139.114 C 151.353 123.884,151.178 115.447,150.913 115.114 C 150.688 114.831,150.283 113.655,150.012 112.500 C 149.742 111.345,149.358 110.400,149.160 110.400 C 148.962 110.400,148.799 110.175,148.798 109.900 C 148.757 100.714,132.251 99.616,127.749 108.500 C 125.652 112.639,125.062 127.289,125.749 158.200 C 125.909 165.394,125.826 173.374,125.532 179.211 C 125.156 186.649,125.162 190.213,125.562 196.211 C 125.950 202.035,125.977 208.404,125.678 223.600 C 125.406 237.477,125.418 244.850,125.720 248.246 C 126.318 254.982,125.427 264.784,124.047 266.651 C 121.380 270.259,112.712 269.208,111.138 265.087 C 110.884 264.422,110.180 263.752,109.390 263.422 C 108.662 263.117,107.395 261.968,106.573 260.868 C 105.519 259.456,104.714 258.794,103.839 258.621 C 103.085 258.473,101.508 257.363,99.810 255.788 C 98.275 254.365,96.884 253.200,96.718 253.200 C 96.552 253.200,96.053 252.489,95.610 251.620 C 95.104 250.628,94.280 249.791,93.395 249.371 C 91.766 248.598,91.606 248.398,90.800 246.126 C 90.149 244.291,88.728 242.525,83.797 237.418 C 81.473 235.010,80.394 233.545,79.866 232.076 C 79.457 230.937,78.711 229.772,78.161 229.411 C 76.791 228.513,74.800 225.654,74.800 224.584 C 74.800 222.923,73.293 220.262,71.761 219.218 C 70.128 218.105,69.279 216.312,69.230 213.874 C 69.192 211.940,68.743 211.118,66.606 209.059 C 64.990 207.502,64.008 205.399,64.002 203.480 C 63.999 202.438,62.998 200.659,61.662 199.324 C 60.481 198.143,59.200 193.941,59.200 191.248 C 59.200 190.405,58.965 189.979,58.400 189.800 C 56.603 189.230,54.619 184.692,53.779 179.231 C 53.629 178.257,53.172 176.907,52.763 176.231 C 51.022 173.346,50.467 172.076,50.038 169.996 C 49.465 167.221,48.827 158.621,48.812 153.475 C 48.799 149.325,47.936 145.600,46.987 145.600 C 46.170 145.600,44.819 143.083,44.599 141.152 C 44.489 140.188,44.128 137.150,43.797 134.400 C 43.391 131.015,43.207 125.911,43.228 118.600 C 43.264 106.524,42.970 104.381,40.242 96.800 C 39.210 93.933,38.710 85.190,38.861 72.637 C 39.060 56.014,37.814 57.089,57.200 56.800 C 66.822 56.656,70.826 56.461,71.400 56.106 C 74.280 54.329,77.983 53.110,81.585 52.754 C 83.683 52.547,86.390 52.169,87.600 51.916 C 88.810 51.662,91.510 51.400,93.600 51.334 C 95.690 51.267,99.290 50.958,101.600 50.647 C 103.910 50.336,107.060 50.072,108.600 50.060 C 110.140 50.048,114.550 49.842,118.400 49.602 C 131.256 48.800,140.604 48.789,155.000 49.561 M271.603 98.106 C 273.018 98.604,274.800 100.088,274.800 100.768 C 274.800 100.971,275.332 101.253,275.981 101.396 C 277.678 101.769,279.097 103.022,279.404 104.418 C 279.667 105.618,280.636 106.490,282.228 106.963 C 283.469 107.331,289.371 113.213,289.958 114.665 C 290.242 115.370,290.852 116.028,291.334 116.150 C 292.186 116.367,294.531 118.288,294.841 119.024 C 294.929 119.231,296.022 120.258,297.271 121.306 C 298.719 122.521,299.711 123.725,300.009 124.626 C 300.265 125.404,300.929 126.526,301.485 127.120 C 302.470 128.175,304.091 130.835,305.766 134.149 C 306.225 135.055,307.000 135.992,307.488 136.230 C 308.733 136.836,309.961 138.507,310.260 140.001 C 310.400 140.698,310.824 141.388,311.204 141.534 C 312.536 142.047,314.737 145.310,316.147 148.861 C 316.465 149.664,317.279 150.730,317.955 151.230 C 319.348 152.260,319.764 153.345,320.392 157.587 C 320.807 160.391,321.208 161.179,322.225 161.194 C 323.190 161.208,324.767 163.457,325.036 165.200 C 325.380 167.441,326.395 169.497,327.800 170.800 C 329.532 172.407,330.387 174.523,330.667 177.893 C 330.870 180.326,331.141 181.284,331.919 182.311 C 334.430 185.626,335.862 188.946,336.171 192.166 C 336.507 195.674,337.713 199.270,339.291 201.467 C 340.697 203.425,340.923 205.481,341.452 221.195 L 341.729 229.390 343.037 230.777 C 344.481 232.307,345.697 237.679,346.188 244.698 C 346.315 246.512,346.577 248.413,346.770 248.922 C 346.964 249.432,347.145 252.267,347.172 255.224 C 347.221 260.505,347.594 264.029,348.395 266.797 C 348.873 268.446,348.887 275.982,348.421 280.800 C 348.064 284.495,348.549 289.006,349.393 289.850 C 351.604 292.062,351.294 307.465,348.987 310.014 C 348.664 310.371,348.400 310.840,348.400 311.057 C 348.400 312.379,345.424 312.928,336.400 313.272 C 331.450 313.460,327.079 313.796,326.687 314.019 C 324.961 314.998,318.221 315.623,312.000 315.381 C 306.464 315.166,305.114 315.254,299.400 316.201 C 289.242 317.886,288.727 317.940,278.200 318.416 C 268.431 318.857,229.585 318.689,224.800 318.185 C 220.689 317.752,208.395 314.800,207.400 314.008 C 207.180 313.832,205.665 313.558,204.033 313.397 C 199.898 312.991,196.163 311.841,193.805 310.248 C 191.935 308.985,191.515 308.877,187.561 308.638 C 182.444 308.330,177.901 307.152,176.000 305.642 C 175.230 305.030,174.207 304.321,173.726 304.065 C 171.850 303.066,166.800 303.901,166.800 305.209 C 166.800 306.311,165.335 307.859,163.657 308.531 C 162.522 308.985,162.023 309.460,161.822 310.277 C 161.290 312.438,160.561 313.103,158.391 313.401 C 156.583 313.650,156.274 313.836,155.708 315.024 C 154.024 318.556,145.284 319.023,142.397 315.735 C 140.849 313.972,141.016 312.699,143.177 309.800 C 143.997 308.700,145.150 306.935,145.739 305.878 C 147.157 303.331,148.306 301.698,149.876 299.998 L 151.170 298.597 151.376 248.998 C 151.635 186.244,151.121 191.072,157.600 190.545 C 158.810 190.446,160.790 190.201,162.000 189.999 C 175.606 187.734,189.173 186.877,194.719 187.933 C 201.908 189.301,205.817 189.696,208.775 189.353 C 213.933 188.755,227.765 188.983,229.506 189.695 C 230.328 190.031,232.058 190.613,233.350 190.989 C 237.841 192.295,238.725 195.373,238.124 207.600 C 237.578 218.714,238.118 248.084,238.980 254.102 L 239.710 259.204 242.155 261.776 C 244.106 263.828,244.923 264.404,246.200 264.626 C 247.080 264.779,247.989 265.053,248.219 265.234 C 248.795 265.687,257.136 264.551,257.904 263.914 C 258.245 263.631,258.787 262.770,259.109 262.000 C 259.431 261.230,260.547 259.761,261.590 258.734 C 264.164 256.200,263.963 262.614,263.981 182.337 C 263.997 106.254,264.020 105.246,265.842 101.182 C 267.286 97.959,268.836 97.132,271.603 98.106 " stroke="none" fill="#fbfbfb" fill-rule="evenodd"></path><path id="path3" d="M101.600 53.181 C 93.676 53.461,81.114 54.277,79.331 54.628 C 78.853 54.723,77.911 55.263,77.239 55.829 C 75.507 57.286,72.775 57.573,59.947 57.644 C 43.967 57.732,41.644 58.331,40.422 62.679 C 39.706 65.226,39.492 71.955,39.991 76.200 C 40.250 78.400,40.607 81.910,40.783 84.000 C 41.215 89.115,41.565 90.744,42.586 92.400 C 44.286 95.158,44.335 95.685,44.584 114.200 C 44.891 136.957,45.295 140.608,47.763 142.925 L 49.387 144.450 49.664 152.125 C 50.126 164.944,50.742 168.347,52.717 168.974 C 53.994 169.379,54.416 170.891,55.189 177.844 C 55.632 181.819,56.612 184.508,58.143 185.947 C 58.846 186.607,59.384 187.921,60.021 190.536 C 61.077 194.874,61.523 195.837,63.381 197.807 C 64.237 198.715,64.872 199.857,65.015 200.746 C 65.786 205.546,67.131 208.400,68.621 208.400 C 69.387 208.400,69.792 209.326,70.561 212.838 C 71.225 215.867,72.308 217.501,74.058 218.113 C 74.430 218.243,75.094 219.478,75.587 220.962 C 76.323 223.171,76.692 223.713,77.943 224.416 C 79.464 225.271,79.842 225.898,80.974 229.443 C 81.665 231.608,82.763 232.916,84.396 233.520 C 84.944 233.723,85.754 234.583,86.196 235.431 C 86.638 236.279,87.630 237.379,88.400 237.875 C 90.405 239.168,91.200 240.030,91.200 240.910 C 91.200 241.746,93.626 244.400,94.391 244.400 C 94.650 244.400,94.320 243.944,93.657 243.387 C 92.995 242.830,92.057 241.497,91.573 240.426 C 91.089 239.354,90.245 238.238,89.698 237.945 C 89.150 237.652,87.904 236.375,86.928 235.106 C 85.952 233.838,85.029 232.800,84.877 232.800 C 83.982 232.798,82.276 230.544,81.265 228.028 C 80.407 225.894,79.605 224.670,78.248 223.424 C 77.232 222.491,76.400 221.405,76.400 221.011 C 76.400 220.080,75.039 217.852,73.114 215.633 C 72.271 214.662,71.478 213.402,71.351 212.833 C 70.620 209.564,70.245 208.733,68.786 207.148 C 67.304 205.538,66.638 204.002,65.847 200.377 C 65.724 199.815,64.810 198.116,63.817 196.603 C 61.913 193.705,61.014 191.598,60.602 189.073 C 60.466 188.234,59.559 186.040,58.587 184.198 C 56.804 180.816,55.994 178.140,55.191 172.967 C 54.778 170.311,54.481 169.615,52.692 167.108 C 51.575 165.543,50.795 160.444,50.389 152.068 C 50.045 144.960,49.934 144.186,49.010 142.468 C 46.330 137.486,46.043 135.014,45.398 111.400 C 45.066 99.247,44.619 94.583,43.426 90.806 C 42.882 89.086,42.245 85.905,42.008 83.739 C 41.772 81.573,41.412 78.450,41.207 76.800 C 40.433 70.562,40.996 63.029,42.362 61.345 C 44.431 58.794,45.336 58.646,60.600 58.364 C 73.408 58.127,74.821 58.033,77.200 57.251 C 78.630 56.781,82.310 56.116,85.378 55.774 C 88.445 55.432,91.089 55.069,91.252 54.968 C 91.416 54.867,94.216 54.607,97.475 54.391 C 123.858 52.642,161.375 53.273,167.329 55.567 C 169.835 56.533,177.614 58.030,182.166 58.423 C 187.779 58.907,192.958 60.043,195.800 61.413 C 196.900 61.943,199.385 62.743,201.323 63.190 C 204.811 63.995,205.916 64.437,209.800 66.573 C 211.075 67.274,213.323 67.950,216.000 68.438 C 218.310 68.859,220.850 69.461,221.644 69.776 C 223.223 70.402,224.229 69.630,225.001 67.198 C 225.393 65.962,227.200 63.200,227.617 63.200 C 227.788 63.200,228.965 62.120,230.233 60.800 C 232.485 58.455,232.587 58.400,234.669 58.400 L 236.800 58.400 236.786 60.500 C 236.778 61.655,236.511 63.680,236.192 65.000 C 235.873 66.320,235.608 68.390,235.603 69.600 C 235.598 70.810,235.203 72.970,234.724 74.400 C 233.861 76.982,233.853 77.285,233.607 118.600 C 233.327 165.410,233.569 162.007,230.303 165.122 C 227.586 167.713,225.767 167.825,188.600 167.687 C 175.606 167.639,165.618 167.767,164.200 168.000 C 159.668 168.745,156.606 167.524,154.904 164.294 L 153.800 162.200 153.546 140.000 C 153.184 108.356,153.023 106.701,150.006 103.654 C 149.123 102.761,148.400 101.849,148.400 101.626 C 148.400 100.327,141.230 98.918,136.862 99.359 C 130.655 99.984,130.272 100.108,127.715 102.332 C 122.698 106.696,122.801 105.425,122.823 162.294 C 122.833 187.542,122.805 213.870,122.761 220.800 C 122.717 227.730,122.651 239.160,122.614 246.200 C 122.554 257.423,122.450 259.363,121.773 261.948 L 121.000 264.897 118.467 264.660 C 115.415 264.376,113.674 263.391,111.933 260.966 C 111.233 259.991,109.927 258.764,109.030 258.238 C 105.585 256.218,96.000 247.285,96.000 246.095 C 96.000 245.849,95.811 245.530,95.579 245.387 C 94.705 244.847,96.467 248.177,97.889 249.754 C 99.914 251.998,101.176 253.144,105.567 256.727 C 107.639 258.417,109.709 260.214,110.167 260.720 C 115.547 266.662,119.426 268.095,122.225 265.174 L 123.400 263.948 123.639 187.674 C 123.901 104.415,123.847 106.235,126.067 104.809 C 126.580 104.479,127.821 103.371,128.824 102.346 C 132.534 98.556,146.335 99.013,148.222 102.989 C 148.587 103.758,149.496 104.765,150.243 105.227 C 152.232 106.456,152.457 109.996,152.592 142.200 C 152.688 165.103,153.020 167.093,156.959 168.383 C 158.437 168.868,155.311 168.859,195.600 168.495 C 231.617 168.169,229.660 168.325,231.579 165.629 C 233.930 162.327,233.782 165.064,234.000 121.000 L 234.200 80.600 235.284 76.600 C 235.881 74.400,236.550 71.070,236.771 69.200 C 237.535 62.758,237.804 61.989,240.005 59.962 C 242.614 57.560,242.509 55.741,239.696 54.588 C 237.209 53.568,230.996 57.088,229.259 60.500 C 228.727 61.545,228.091 62.406,227.846 62.413 C 226.661 62.449,223.225 67.994,223.201 69.909 C 223.201 69.969,222.783 69.745,222.273 69.411 C 221.763 69.077,219.411 68.478,217.045 68.079 C 213.509 67.484,212.483 67.146,211.275 66.178 C 209.066 64.406,207.121 63.668,202.445 62.824 C 198.012 62.025,196.181 61.486,195.942 60.910 C 195.538 59.939,190.695 58.725,185.007 58.170 C 177.911 57.478,175.320 56.998,172.836 55.919 C 166.713 53.257,134.533 52.021,101.600 53.181 M239.200 56.767 C 239.200 57.575,238.685 58.400,238.181 58.400 C 237.478 58.400,237.073 57.707,237.352 56.981 C 237.594 56.351,239.200 56.166,239.200 56.767 M267.504 101.642 C 265.092 104.411,265.203 100.617,265.165 181.477 C 265.127 261.737,265.165 259.921,263.519 260.708 C 262.322 261.281,260.800 263.024,260.800 263.821 C 260.800 264.458,258.610 265.841,257.000 266.221 C 256.340 266.377,255.171 266.974,254.403 267.547 C 251.595 269.641,247.083 270.332,246.000 268.834 C 245.414 268.023,242.730 266.468,240.800 265.820 C 239.590 265.414,238.330 264.906,238.000 264.691 C 237.670 264.476,237.905 264.773,238.522 265.350 C 239.140 265.928,239.939 266.400,240.298 266.400 C 240.658 266.400,242.183 267.144,243.688 268.053 C 248.003 270.660,251.519 270.688,255.800 268.148 C 256.900 267.495,258.340 266.729,259.000 266.447 C 259.660 266.164,260.603 265.453,261.096 264.866 C 261.589 264.280,262.779 262.939,263.740 261.886 C 266.146 259.254,265.999 264.396,266.008 182.441 C 266.013 140.749,266.172 108.723,266.382 107.272 C 266.853 104.009,268.376 101.818,269.949 102.137 C 273.916 102.942,276.579 104.273,277.023 105.672 C 277.163 106.113,279.285 108.492,281.739 110.959 C 284.192 113.426,286.919 116.334,287.798 117.422 C 288.676 118.510,290.476 120.494,291.798 121.832 C 295.247 125.324,297.931 128.548,298.504 129.886 C 299.319 131.790,303.828 136.873,306.492 138.890 C 307.370 139.554,308.114 140.568,308.400 141.490 C 309.326 144.467,310.425 146.429,311.423 146.883 C 312.088 147.186,312.891 148.307,313.779 150.171 C 314.521 151.727,315.691 153.536,316.380 154.191 C 317.317 155.081,317.938 156.363,318.841 159.269 C 319.673 161.947,320.517 163.755,321.552 165.078 C 322.380 166.135,323.466 168.170,323.967 169.600 C 324.468 171.030,325.751 173.550,326.817 175.200 C 328.538 177.863,328.825 178.633,329.372 182.058 C 330.083 186.509,330.434 187.574,331.773 189.329 C 333.126 191.103,333.492 192.225,334.227 196.851 C 334.586 199.109,335.398 202.145,336.069 203.743 C 338.566 209.690,339.572 215.692,339.597 224.800 C 339.605 227.773,339.834 230.178,340.244 231.600 C 340.593 232.810,341.059 234.790,341.280 236.000 C 341.501 237.210,342.207 241.031,342.850 244.491 C 344.181 251.661,344.768 260.954,344.814 275.600 C 344.851 287.053,345.157 290.001,346.624 293.036 C 348.109 296.105,348.334 302.937,347.019 305.000 C 344.743 308.571,342.095 310.116,338.898 309.737 C 337.406 309.560,336.194 309.729,334.148 310.399 C 330.602 311.559,325.469 311.916,306.089 312.347 C 297.668 312.535,290.648 312.828,290.489 312.999 C 290.075 313.444,327.163 312.857,331.000 312.357 C 332.760 312.129,336.090 311.812,338.400 311.654 C 346.585 311.095,349.206 308.224,349.196 299.827 C 349.189 294.766,348.886 293.348,347.517 291.978 C 345.737 290.199,345.601 289.109,345.589 276.603 C 345.578 263.858,345.072 250.362,344.401 244.909 C 343.168 234.893,343.053 234.253,342.356 233.556 C 340.978 232.178,340.400 229.429,340.400 224.255 C 340.400 213.515,339.289 205.951,337.398 203.826 C 335.900 202.142,335.775 201.736,335.225 196.738 C 334.646 191.474,333.810 189.032,332.107 187.628 C 330.718 186.483,330.649 186.300,330.186 182.520 C 329.481 176.772,328.995 175.375,326.937 173.174 C 325.549 171.691,325.078 170.842,324.906 169.521 C 324.569 166.921,323.011 163.679,321.842 163.146 C 320.625 162.592,319.600 160.567,319.600 158.718 C 319.600 156.774,317.864 153.569,316.200 152.444 C 315.405 151.906,314.688 151.032,314.561 150.444 C 314.047 148.071,313.478 147.208,311.967 146.512 C 311.116 146.120,310.414 145.530,310.407 145.200 C 310.349 142.662,308.117 138.563,306.161 137.404 C 304.761 136.574,303.952 135.758,303.516 134.736 C 303.141 133.860,302.254 132.866,301.322 132.277 C 300.197 131.567,299.602 130.819,299.204 129.613 C 298.886 128.649,297.790 127.045,296.626 125.838 C 295.511 124.684,293.790 122.726,292.800 121.487 C 291.810 120.248,290.715 119.135,290.367 119.012 C 289.745 118.792,287.600 115.839,287.600 115.202 C 287.600 115.022,286.692 114.223,285.583 113.426 C 284.474 112.629,283.450 111.675,283.309 111.306 C 282.898 110.236,281.477 108.744,280.515 108.373 C 280.028 108.185,279.187 107.158,278.646 106.090 C 277.415 103.662,277.148 103.446,273.828 102.196 C 272.338 101.635,270.855 100.912,270.531 100.588 C 269.616 99.673,269.046 99.871,267.504 101.642 M158.000 191.564 C 154.692 192.052,153.601 193.333,153.032 197.400 C 152.909 198.280,152.704 221.410,152.578 248.800 C 152.322 304.238,152.364 303.340,149.961 304.471 C 148.837 305.001,148.309 305.647,147.512 307.473 C 146.801 309.099,146.001 310.162,144.854 311.000 C 142.249 312.905,142.183 314.310,144.620 315.965 C 146.500 317.243,150.443 316.667,152.847 314.763 C 153.675 314.107,155.238 313.308,156.321 312.987 C 158.864 312.231,160.228 311.134,160.808 309.375 C 161.117 308.438,161.811 307.624,162.871 306.955 C 164.701 305.800,165.774 303.719,166.198 300.500 C 166.528 297.999,167.373 297.738,169.622 299.445 C 171.954 301.215,174.841 302.340,178.609 302.949 C 181.502 303.416,182.633 303.811,184.306 304.937 C 185.603 305.809,187.268 306.506,188.697 306.775 C 196.545 308.252,199.658 308.987,200.049 309.459 C 201.118 310.747,214.966 313.200,221.166 313.200 C 223.547 313.200,222.352 312.905,217.200 312.222 C 211.531 311.469,207.036 310.600,204.400 309.745 C 201.177 308.701,195.482 307.303,191.622 306.610 C 189.195 306.174,186.888 305.450,185.172 304.586 C 183.703 303.846,180.813 302.812,178.750 302.288 C 176.688 301.764,174.190 300.857,173.200 300.273 C 170.563 298.716,169.575 298.345,167.868 298.269 L 166.336 298.200 165.165 301.386 C 164.248 303.880,163.581 304.969,162.097 306.395 C 161.054 307.397,159.750 308.884,159.200 309.700 C 158.650 310.516,157.750 311.348,157.200 311.549 C 156.650 311.750,154.447 312.564,152.304 313.357 C 145.980 315.699,143.119 315.045,146.278 311.979 C 147.430 310.861,147.969 309.955,148.148 308.836 C 148.342 307.621,148.814 306.908,150.218 305.708 C 153.449 302.947,153.253 306.267,153.583 248.600 C 153.802 210.365,153.995 197.423,154.363 196.274 C 155.826 191.707,157.430 191.538,198.000 191.688 L 228.600 191.800 230.600 192.800 C 233.906 194.453,235.479 198.773,234.198 202.683 C 233.490 204.844,233.442 206.377,233.483 225.479 L 233.528 245.958 234.538 249.479 C 235.093 251.416,235.671 254.530,235.821 256.400 C 235.971 258.270,236.332 260.430,236.623 261.200 C 236.914 261.970,237.244 262.960,237.355 263.400 C 237.782 265.077,236.630 255.104,235.983 251.516 C 235.756 250.260,235.100 248.205,234.525 246.949 C 233.527 244.769,233.502 244.553,233.979 242.155 C 234.253 240.775,234.361 238.955,234.219 238.112 C 233.449 233.557,233.850 205.211,234.697 204.297 C 235.760 203.150,236.496 200.387,236.217 198.594 C 236.098 197.827,235.907 196.598,235.794 195.862 C 235.627 194.785,235.144 194.219,233.319 192.962 L 231.051 191.400 195.426 191.349 C 175.832 191.321,158.990 191.418,158.000 191.564 M286.794 313.945 C 285.482 314.645,283.475 314.952,270.128 316.495 C 267.253 316.827,264.647 316.778,258.128 316.269 C 253.547 315.912,246.168 315.609,241.730 315.596 C 233.913 315.574,228.700 315.017,226.805 314.003 C 225.791 313.460,224.775 313.464,225.600 314.008 C 228.439 315.878,232.197 316.400,242.819 316.400 C 249.650 316.400,255.212 316.620,259.097 317.044 C 265.150 317.705,266.020 317.689,278.669 316.687 C 285.265 316.164,285.598 316.096,287.053 314.971 C 287.886 314.327,288.845 313.678,289.184 313.528 C 289.665 313.316,289.623 313.250,288.994 313.228 C 288.551 313.213,287.561 313.535,286.794 313.945 " stroke="none" fill="#dce4bf" fill-rule="evenodd"></path><path id="path4" d="M128.600 49.036 C 126.840 49.107,122.250 49.362,118.400 49.602 C 114.550 49.842,110.140 50.048,108.600 50.060 C 107.060 50.072,103.910 50.336,101.600 50.647 C 99.290 50.958,95.690 51.267,93.600 51.334 C 91.510 51.400,88.810 51.662,87.600 51.916 C 86.390 52.169,83.683 52.547,81.585 52.754 C 77.983 53.110,74.280 54.329,71.400 56.106 C 70.826 56.461,66.822 56.656,57.200 56.800 C 37.814 57.089,39.060 56.014,38.861 72.637 C 38.710 85.190,39.210 93.933,40.242 96.800 C 42.970 104.381,43.264 106.524,43.228 118.600 C 43.207 125.911,43.391 131.015,43.797 134.400 C 44.128 137.150,44.489 140.188,44.599 141.152 C 44.819 143.083,46.170 145.600,46.987 145.600 C 47.936 145.600,48.799 149.325,48.812 153.475 C 48.827 158.621,49.465 167.221,50.038 169.996 C 50.467 172.076,51.022 173.346,52.763 176.231 C 53.172 176.907,53.629 178.257,53.779 179.231 C 54.619 184.692,56.603 189.230,58.400 189.800 C 58.965 189.979,59.200 190.405,59.200 191.248 C 59.200 193.941,60.481 198.143,61.662 199.324 C 62.998 200.659,63.999 202.438,64.002 203.480 C 64.008 205.399,64.990 207.502,66.606 209.059 C 68.743 211.118,69.192 211.940,69.230 213.874 C 69.279 216.312,70.128 218.105,71.761 219.218 C 73.293 220.262,74.800 222.923,74.800 224.584 C 74.800 225.654,76.791 228.513,78.161 229.411 C 78.711 229.772,79.457 230.937,79.866 232.076 C 80.394 233.545,81.473 235.010,83.797 237.418 C 88.728 242.525,90.149 244.291,90.800 246.126 C 91.606 248.398,91.766 248.598,93.395 249.371 C 94.280 249.791,95.104 250.628,95.610 251.620 C 96.053 252.489,96.552 253.200,96.718 253.200 C 96.884 253.200,98.275 254.365,99.810 255.788 C 101.508 257.363,103.085 258.473,103.839 258.621 C 104.714 258.794,105.519 259.456,106.573 260.868 C 107.395 261.968,108.662 263.117,109.390 263.422 C 110.180 263.752,110.884 264.422,111.138 265.087 C 112.712 269.208,121.380 270.259,124.047 266.651 C 125.427 264.784,126.318 254.982,125.720 248.246 C 125.418 244.850,125.406 237.477,125.678 223.600 C 125.977 208.404,125.950 202.035,125.562 196.211 C 125.162 190.213,125.156 186.649,125.532 179.211 C 125.826 173.374,125.909 165.394,125.749 158.200 C 125.062 127.289,125.652 112.639,127.749 108.500 C 132.251 99.616,148.757 100.714,148.798 109.900 C 148.799 110.175,148.962 110.400,149.160 110.400 C 149.358 110.400,149.742 111.345,150.012 112.500 C 150.283 113.655,150.688 114.831,150.913 115.114 C 151.178 115.447,151.353 123.884,151.413 139.114 C 151.510 163.942,151.679 166.576,153.289 168.301 C 155.307 170.462,154.517 170.401,180.280 170.393 C 195.445 170.389,206.176 170.560,209.600 170.860 C 223.769 172.102,234.323 169.617,236.735 164.471 L 237.800 162.200 238.003 114.600 C 238.172 74.921,238.299 66.834,238.764 66.000 C 239.071 65.450,240.059 63.925,240.961 62.611 C 241.862 61.297,243.078 59.423,243.663 58.447 L 244.726 56.671 243.730 55.166 C 241.280 51.464,233.841 52.121,229.800 56.396 C 229.140 57.094,227.972 57.929,227.205 58.252 C 225.442 58.993,224.198 60.156,223.584 61.637 C 222.807 63.515,219.036 65.474,217.439 64.830 C 214.568 63.674,211.661 62.677,209.600 62.143 C 208.390 61.830,207.220 61.343,207.000 61.062 C 205.432 59.057,199.345 57.404,190.600 56.609 C 184.087 56.017,181.691 55.558,176.000 53.812 C 175.010 53.508,172.310 52.967,170.000 52.609 C 167.369 52.202,165.053 51.579,163.800 50.942 C 161.197 49.619,141.102 48.531,128.600 49.036 M166.200 54.142 C 168.840 54.680,171.826 55.480,172.836 55.919 C 175.320 56.998,177.911 57.478,185.007 58.170 C 190.695 58.725,195.538 59.939,195.942 60.910 C 196.181 61.486,198.012 62.025,202.445 62.824 C 207.121 63.668,209.066 64.406,211.275 66.178 C 212.483 67.146,213.509 67.484,217.045 68.079 C 219.411 68.478,221.763 69.077,222.273 69.411 C 222.783 69.745,223.201 69.969,223.201 69.909 C 223.225 67.994,226.661 62.449,227.846 62.413 C 228.091 62.406,228.727 61.545,229.259 60.500 C 230.996 57.088,237.209 53.568,239.696 54.588 C 242.509 55.741,242.614 57.560,240.005 59.962 C 237.804 61.989,237.535 62.758,236.771 69.200 C 236.550 71.070,235.881 74.400,235.284 76.600 L 234.200 80.600 234.000 121.000 C 233.782 165.064,233.930 162.327,231.579 165.629 C 229.660 168.325,231.617 168.169,195.600 168.495 C 155.311 168.859,158.437 168.868,156.959 168.383 C 153.020 167.093,152.688 165.103,152.592 142.200 C 152.457 109.996,152.232 106.456,150.243 105.227 C 149.496 104.765,148.587 103.758,148.222 102.989 C 147.177 100.788,146.185 100.375,141.318 100.119 C 133.460 99.704,130.977 100.147,128.824 102.346 C 127.821 103.371,126.580 104.479,126.067 104.809 C 123.847 106.235,123.901 104.415,123.639 187.674 L 123.400 263.948 122.225 265.174 C 119.426 268.095,115.547 266.662,110.167 260.720 C 109.709 260.214,107.561 258.360,105.393 256.600 C 99.902 252.142,96.862 248.962,95.769 246.533 C 95.237 245.349,94.497 244.358,94.037 244.212 C 93.001 243.883,91.200 241.742,91.200 240.839 C 91.200 240.026,90.364 239.141,88.400 237.875 C 87.630 237.379,86.638 236.279,86.196 235.431 C 85.754 234.583,84.944 233.723,84.396 233.520 C 82.763 232.916,81.665 231.608,80.974 229.443 C 79.842 225.898,79.464 225.271,77.943 224.416 C 76.692 223.713,76.323 223.171,75.587 220.962 C 75.094 219.478,74.430 218.243,74.058 218.113 C 72.308 217.501,71.225 215.867,70.561 212.838 C 69.792 209.326,69.387 208.400,68.621 208.400 C 67.131 208.400,65.786 205.546,65.015 200.746 C 64.872 199.857,64.237 198.715,63.381 197.807 C 61.523 195.837,61.077 194.874,60.021 190.536 C 59.384 187.921,58.846 186.607,58.143 185.947 C 56.612 184.508,55.632 181.819,55.189 177.844 C 54.416 170.891,53.994 169.379,52.717 168.974 C 50.742 168.347,50.126 164.944,49.664 152.125 L 49.387 144.450 47.763 142.925 C 45.295 140.608,44.891 136.957,44.584 114.200 C 44.335 95.685,44.286 95.158,42.586 92.400 C 41.565 90.744,41.215 89.115,40.783 84.000 C 40.607 81.910,40.250 78.400,39.991 76.200 C 39.492 71.955,39.706 65.226,40.422 62.679 C 41.644 58.331,43.967 57.732,59.947 57.644 C 72.775 57.573,75.507 57.286,77.239 55.829 C 78.744 54.562,78.711 54.568,86.800 53.964 C 107.036 52.451,158.470 52.567,166.200 54.142 M267.918 98.292 C 263.936 100.762,263.999 99.427,263.981 182.337 C 263.963 262.614,264.164 256.200,261.590 258.734 C 260.547 259.761,259.431 261.230,259.109 262.000 C 258.787 262.770,258.245 263.631,257.904 263.914 C 257.136 264.551,248.795 265.687,248.219 265.234 C 247.989 265.053,247.080 264.779,246.200 264.626 C 244.923 264.404,244.106 263.828,242.155 261.776 L 239.710 259.204 238.980 254.102 C 238.118 248.084,237.578 218.714,238.124 207.600 C 238.725 195.373,237.841 192.295,233.350 190.989 C 232.058 190.613,230.328 190.031,229.506 189.695 C 227.765 188.983,213.933 188.755,208.775 189.353 C 205.817 189.696,201.908 189.301,194.719 187.933 C 189.173 186.877,175.606 187.734,162.000 189.999 C 160.790 190.201,158.810 190.446,157.600 190.545 C 151.121 191.072,151.635 186.244,151.376 248.998 L 151.170 298.597 149.876 299.998 C 148.306 301.698,147.157 303.331,145.739 305.878 C 145.150 306.935,143.997 308.700,143.177 309.800 C 141.016 312.699,140.849 313.972,142.397 315.735 C 145.284 319.023,154.024 318.556,155.708 315.024 C 156.274 313.836,156.583 313.650,158.391 313.401 C 160.561 313.103,161.290 312.438,161.822 310.277 C 162.023 309.460,162.522 308.985,163.657 308.531 C 165.335 307.859,166.800 306.311,166.800 305.209 C 166.800 303.901,171.850 303.066,173.726 304.065 C 174.207 304.321,175.230 305.030,176.000 305.642 C 177.901 307.152,182.444 308.330,187.561 308.638 C 191.515 308.877,191.935 308.985,193.805 310.248 C 196.163 311.841,199.898 312.991,204.033 313.397 C 205.665 313.558,207.180 313.832,207.400 314.008 C 208.395 314.800,220.689 317.752,224.800 318.185 C 229.585 318.689,268.431 318.857,278.200 318.416 C 288.727 317.940,289.242 317.886,299.400 316.201 C 305.114 315.254,306.464 315.166,312.000 315.381 C 318.221 315.623,324.961 314.998,326.687 314.019 C 327.079 313.796,331.450 313.460,336.400 313.272 C 345.424 312.928,348.400 312.379,348.400 311.057 C 348.400 310.840,348.664 310.371,348.987 310.014 C 351.294 307.465,351.604 292.062,349.393 289.850 C 348.549 289.006,348.064 284.495,348.421 280.800 C 348.887 275.982,348.873 268.446,348.395 266.797 C 347.594 264.029,347.221 260.505,347.172 255.224 C 347.145 252.267,346.964 249.432,346.770 248.922 C 346.577 248.413,346.315 246.512,346.188 244.698 C 345.697 237.679,344.481 232.307,343.037 230.777 L 341.729 229.390 341.452 221.195 C 340.923 205.481,340.697 203.425,339.291 201.467 C 337.713 199.270,336.507 195.674,336.171 192.166 C 335.862 188.946,334.430 185.626,331.919 182.311 C 331.141 181.284,330.870 180.326,330.667 177.893 C 330.387 174.523,329.532 172.407,327.800 170.800 C 326.395 169.497,325.380 167.441,325.036 165.200 C 324.767 163.457,323.190 161.208,322.225 161.194 C 321.208 161.179,320.807 160.391,320.392 157.587 C 319.764 153.345,319.348 152.260,317.955 151.230 C 317.279 150.730,316.465 149.664,316.147 148.861 C 314.737 145.310,312.536 142.047,311.204 141.534 C 310.824 141.388,310.400 140.698,310.260 140.001 C 309.961 138.507,308.733 136.836,307.488 136.230 C 307.000 135.992,306.225 135.055,305.766 134.149 C 304.091 130.835,302.470 128.175,301.485 127.120 C 300.929 126.526,300.265 125.404,300.009 124.626 C 299.711 123.725,298.719 122.521,297.271 121.306 C 296.022 120.258,294.929 119.231,294.841 119.024 C 294.531 118.288,292.186 116.367,291.334 116.150 C 290.852 116.028,290.242 115.370,289.958 114.665 C 289.371 113.213,283.469 107.331,282.228 106.963 C 280.636 106.490,279.667 105.618,279.404 104.418 C 279.097 103.022,277.678 101.769,275.981 101.396 C 275.332 101.253,274.800 100.971,274.800 100.768 C 274.800 98.767,269.960 97.026,267.918 98.292 M270.531 100.588 C 270.855 100.912,272.338 101.635,273.828 102.196 C 277.148 103.446,277.415 103.662,278.646 106.090 C 279.187 107.158,280.028 108.185,280.515 108.373 C 281.477 108.744,282.898 110.236,283.309 111.306 C 283.450 111.675,284.474 112.629,285.583 113.426 C 286.692 114.223,287.600 115.022,287.600 115.202 C 287.600 115.839,289.745 118.792,290.367 119.012 C 290.715 119.135,291.810 120.248,292.800 121.487 C 293.790 122.726,295.511 124.684,296.626 125.838 C 297.790 127.045,298.886 128.649,299.204 129.613 C 299.602 130.819,300.197 131.567,301.322 132.277 C 302.254 132.866,303.141 133.860,303.516 134.736 C 303.952 135.758,304.761 136.574,306.161 137.404 C 308.117 138.563,310.349 142.662,310.407 145.200 C 310.414 145.530,311.116 146.120,311.967 146.512 C 313.478 147.208,314.047 148.071,314.561 150.444 C 314.688 151.032,315.405 151.906,316.200 152.444 C 317.864 153.569,319.600 156.774,319.600 158.718 C 319.600 160.567,320.625 162.592,321.842 163.146 C 323.011 163.679,324.569 166.921,324.906 169.521 C 325.078 170.842,325.549 171.691,326.937 173.174 C 328.995 175.375,329.481 176.772,330.186 182.520 C 330.649 186.300,330.718 186.483,332.107 187.628 C 333.810 189.032,334.646 191.474,335.225 196.738 C 335.775 201.736,335.900 202.142,337.398 203.826 C 339.289 205.951,340.400 213.515,340.400 224.255 C 340.400 229.429,340.978 232.178,342.356 233.556 C 343.053 234.253,343.168 234.893,344.401 244.909 C 345.072 250.362,345.578 263.858,345.589 276.603 C 345.601 289.109,345.737 290.199,347.517 291.978 C 348.886 293.348,349.189 294.766,349.196 299.827 C 349.206 308.160,346.549 311.120,338.600 311.632 C 336.400 311.774,332.811 312.105,330.625 312.367 C 328.439 312.629,318.179 312.969,307.825 313.122 L 289.000 313.400 287.297 314.769 L 285.595 316.138 278.697 316.685 C 266.013 317.689,265.152 317.705,259.097 317.044 C 255.226 316.622,249.584 316.397,242.698 316.391 L 232.200 316.383 228.800 315.161 C 224.736 313.701,223.277 313.440,213.400 312.400 C 205.915 311.611,201.350 310.608,200.058 309.467 C 199.475 308.952,196.227 308.182,188.697 306.773 C 187.264 306.505,185.606 305.812,184.306 304.937 C 182.633 303.811,181.502 303.416,178.609 302.949 C 174.841 302.340,171.954 301.215,169.622 299.445 C 167.373 297.738,166.528 297.999,166.198 300.500 C 165.774 303.719,164.701 305.800,162.871 306.955 C 161.811 307.624,161.117 308.438,160.808 309.375 C 160.228 311.134,158.864 312.231,156.321 312.987 C 155.238 313.308,153.675 314.107,152.847 314.763 C 150.443 316.667,146.500 317.243,144.620 315.965 C 142.183 314.310,142.249 312.905,144.854 311.000 C 146.001 310.162,146.801 309.099,147.512 307.473 C 148.309 305.647,148.837 305.001,149.961 304.471 C 152.364 303.340,152.322 304.238,152.578 248.800 C 152.845 191.018,152.685 194.083,155.525 192.317 L 157.000 191.400 194.025 191.400 L 231.051 191.400 233.319 192.962 C 235.144 194.219,235.627 194.785,235.794 195.862 C 235.907 196.598,236.098 197.827,236.217 198.594 C 236.496 200.387,235.760 203.150,234.697 204.297 C 233.850 205.211,233.449 233.557,234.219 238.112 C 234.361 238.955,234.253 240.775,233.979 242.155 C 233.499 244.568,233.522 244.758,234.570 247.033 C 235.326 248.674,235.843 250.812,236.256 254.000 C 236.583 256.530,237.020 259.368,237.226 260.306 C 237.432 261.244,237.600 262.527,237.600 263.157 C 237.600 264.553,237.988 264.876,240.800 265.820 C 242.730 266.468,245.414 268.023,246.000 268.834 C 247.083 270.332,251.595 269.641,254.403 267.547 C 255.171 266.974,256.340 266.377,257.000 266.221 C 258.610 265.841,260.800 264.458,260.800 263.821 C 260.800 263.024,262.322 261.281,263.519 260.708 C 265.165 259.921,265.127 261.737,265.165 181.477 C 265.203 100.617,265.092 104.411,267.504 101.642 C 269.046 99.871,269.616 99.673,270.531 100.588 " stroke="none" fill="#ecf6ca" fill-rule="evenodd"></path></g></svg>